<svg width="28" height="30" viewBox="0 0 28 30" fill="none" xmlns="http://www.w3.org/2000/svg">
<path d="M25.5384 2.30769H22.0769V1.15385C22.0769 0.847827 21.9553 0.554342 21.7389 0.337954C21.5225 0.121566 21.2291 0 20.923 0C20.617 0 20.3235 0.121566 20.1071 0.337954C19.8908 0.554342 19.7692 0.847827 19.7692 1.15385V2.30769H8.23073V1.15385C8.23073 0.847827 8.10917 0.554342 7.89278 0.337954C7.67639 0.121566 7.3829 0 7.07689 0C6.77087 0 6.47738 0.121566 6.26099 0.337954C6.04461 0.554342 5.92304 0.847827 5.92304 1.15385V2.30769H2.4615C1.84946 2.30769 1.26249 2.55082 0.829716 2.9836C0.39694 3.41638 0.153809 4.00335 0.153809 4.61538V27.6923C0.153809 28.3043 0.39694 28.8913 0.829716 29.3241C1.26249 29.7569 1.84946 30 2.4615 30H25.5384C26.1505 30 26.7374 29.7569 27.1702 29.3241C27.603 28.8913 27.8461 28.3043 27.8461 27.6923V4.61538C27.8461 4.00335 27.603 3.41638 27.1702 2.9836C26.7374 2.55082 26.1505 2.30769 25.5384 2.30769ZM11.6923 24.2308C11.6923 24.5368 11.5707 24.8303 11.3543 25.0467C11.1379 25.2631 10.8444 25.3846 10.5384 25.3846C10.2324 25.3846 9.93892 25.2631 9.72253 25.0467C9.50614 24.8303 9.38458 24.5368 9.38458 24.2308V16.8663L8.74708 17.1865C8.47319 17.3235 8.15612 17.346 7.86562 17.2492C7.57512 17.1523 7.33498 16.9441 7.19804 16.6702C7.0611 16.3963 7.03856 16.0792 7.1354 15.7887C7.23223 15.4982 7.4405 15.2581 7.71439 15.1212L10.0221 13.9673C10.1981 13.8792 10.3936 13.8377 10.5902 13.8465C10.7868 13.8553 10.9779 13.9143 11.1452 14.0178C11.3126 14.1213 11.4507 14.2658 11.5465 14.4378C11.6422 14.6097 11.6924 14.8032 11.6923 15V24.2308ZM19.7692 23.0769C20.0752 23.0769 20.3687 23.1985 20.5851 23.4149C20.8015 23.6313 20.923 23.9247 20.923 24.2308C20.923 24.5368 20.8015 24.8303 20.5851 25.0467C20.3687 25.2631 20.0752 25.3846 19.7692 25.3846H15.1538C14.9395 25.3846 14.7295 25.3249 14.5472 25.2123C14.3649 25.0996 14.2176 24.9384 14.1218 24.7468C14.0259 24.5551 13.9854 24.3406 14.0046 24.1271C14.0239 23.9137 14.1022 23.7099 14.2307 23.5385L18.3817 18.0043C18.4761 17.8786 18.5438 17.735 18.5807 17.5822C18.6176 17.4293 18.6229 17.2706 18.5963 17.1157C18.5696 16.9607 18.5116 16.8129 18.4257 16.6812C18.3399 16.5495 18.228 16.4367 18.097 16.3498C17.966 16.2629 17.8186 16.2037 17.6639 16.1758C17.5092 16.1479 17.3504 16.1519 17.1973 16.1876C17.0442 16.2233 16.9 16.2898 16.7736 16.3832C16.6471 16.4767 16.5411 16.5949 16.462 16.7308C16.3885 16.8662 16.2885 16.9855 16.1682 17.0817C16.0478 17.1778 15.9094 17.2489 15.7611 17.2907C15.6127 17.3325 15.4576 17.3442 15.3047 17.3251C15.1518 17.3059 15.0043 17.2564 14.8709 17.1793C14.7374 17.1022 14.6208 16.9992 14.5278 16.8763C14.4349 16.7535 14.3675 16.6132 14.3296 16.4639C14.2917 16.3145 14.2841 16.1591 14.3072 16.0068C14.3304 15.8544 14.3838 15.7083 14.4644 15.5769C14.8455 14.9173 15.4336 14.4019 16.1375 14.1105C16.8413 13.8191 17.6217 13.7681 18.3575 13.9653C19.0933 14.1625 19.7436 14.5969 20.2074 15.2012C20.6712 15.8055 20.9228 16.5459 20.923 17.3077C20.9255 18.0602 20.6802 18.7926 20.225 19.3918L17.4615 23.0769H19.7692ZM2.4615 9.23077V4.61538H5.92304V5.76923C5.92304 6.07525 6.04461 6.36873 6.26099 6.58512C6.47738 6.80151 6.77087 6.92308 7.07689 6.92308C7.3829 6.92308 7.67639 6.80151 7.89278 6.58512C8.10917 6.36873 8.23073 6.07525 8.23073 5.76923V4.61538H19.7692V5.76923C19.7692 6.07525 19.8908 6.36873 20.1071 6.58512C20.3235 6.80151 20.617 6.92308 20.923 6.92308C21.2291 6.92308 21.5225 6.80151 21.7389 6.58512C21.9553 6.36873 22.0769 6.07525 22.0769 5.76923V4.61538H25.5384V9.23077H2.4615Z" fill="#333333"/>
</svg>
