<svg width="30" height="30" viewBox="0 0 30 30" fill="none" xmlns="http://www.w3.org/2000/svg">
<path d="M15 0C12.0333 0 9.13319 0.879735 6.66645 2.52796C4.19971 4.17618 2.27713 6.51886 1.14181 9.25975C0.00649927 12.0006 -0.290551 15.0166 0.288227 17.9264C0.867006 20.8361 2.29562 23.5088 4.3934 25.6066C6.49119 27.7044 9.16393 29.133 12.0736 29.7118C14.9834 30.2906 17.9994 29.9935 20.7403 28.8582C23.4811 27.7229 25.8238 25.8003 27.472 23.3335C29.1203 20.8668 30 17.9667 30 15C29.9958 11.023 28.4141 7.21017 25.602 4.39804C22.7898 1.5859 18.977 0.00419974 15 0ZM22.4394 8.33509L17.824 17.5659C17.7675 17.6771 17.6771 17.7675 17.5659 17.824L8.3351 22.4394C8.22673 22.4939 8.10396 22.5128 7.98424 22.4935C7.86451 22.4742 7.75391 22.4176 7.66815 22.3318C7.5824 22.2461 7.52585 22.1355 7.50654 22.0158C7.48723 21.896 7.50614 21.7733 7.56058 21.6649L12.176 12.4341C12.2325 12.3229 12.3229 12.2325 12.4341 12.176L21.6649 7.56058C21.7733 7.50613 21.896 7.48722 22.0158 7.50653C22.1355 7.52584 22.2461 7.58239 22.3319 7.66815C22.4176 7.7539 22.4742 7.8645 22.4935 7.98423C22.5128 8.10396 22.4939 8.22673 22.4394 8.33509Z" fill="#333333"/>
</svg>
