<svg width="16" height="30" viewBox="0 0 16 30" fill="none" xmlns="http://www.w3.org/2000/svg">
<path d="M9.07147 14.9227V28.9286C9.07147 29.2128 8.95859 29.4853 8.75766 29.6862C8.55674 29.8871 8.28422 30 8.00007 30C7.71591 30 7.4434 29.8871 7.24247 29.6862C7.04155 29.4853 6.92867 29.2128 6.92867 28.9286V14.9227C5.05201 14.6518 3.34761 13.6802 2.15847 12.2033C0.969332 10.7264 0.383728 8.85397 0.519512 6.96273C0.655297 5.0715 1.50239 3.30189 2.89031 2.01004C4.27824 0.718193 6.10397 0 8.00007 0C9.89617 0 11.7219 0.718193 13.1098 2.01004C14.4977 3.30189 15.3448 5.0715 15.4806 6.96273C15.6164 8.85397 15.0308 10.7264 13.8417 12.2033C12.6525 13.6802 10.9481 14.6518 9.07147 14.9227Z" fill="#333333"/>
</svg>
